<?xml version="1.0" encoding="UTF-8"?>
<svg width="84px" height="40px" viewBox="0 0 84 40" version="1.1" xmlns="http://www.w3.org/2000/svg" xmlns:xlink="http://www.w3.org/1999/xlink">
    <title>Highlighter/1) Priority /2) Scribble /6)</title>
    <g id="Symbols" stroke="none" stroke-width="1" fill="none" fill-rule="evenodd">
        <g id="charts/palm/kpi" transform="translate(-138.000000, 0.000000)" fill="#00FFD0" fill-rule="nonzero">
            <g id="Highlighter/1)-Priority-/2)-Scribble-/6)" transform="translate(138.000000, 0.000000)">
                <path d="M66.336962,3.65473684 C66.3931709,4.45842105 66.2297975,5.21315789 65.840538,5.92 C65.8121709,5.97105263 65.7958861,6.04526316 65.8084937,6.10052632 C65.9618861,6.76631579 65.5211456,7.03631579 65.0410063,7.29578947 C64.9800696,7.32894737 64.9795443,7.47421053 64.9511772,7.56736842 L64.9432975,7.55947368 C65.1203291,7.65 65.3730063,7.60842105 65.3225759,7.98684211 C65.3005127,8.15105263 65.6498481,8.36421053 65.9046266,8.63473684 C65.7023797,9.05473684 65.4722911,9.53368421 65.2416772,10.0131579 C65.1397658,10.3742105 65.3787848,10.4394737 65.7528101,10.4568421 C67.0928924,10.5189474 68.4124873,10.3594737 69.739962,10.2168421 C72.6323544,9.90526316 75.5278987,9.61421053 78.4281709,9.39421053 C79.504019,9.31263158 80.6014051,9.40684211 81.6798797,9.51315789 C82.2445949,9.56842105 82.7893481,9.82315789 83.2899747,9.97157895 C83.2899747,10.2526316 83.2899747,10.4763158 83.2899747,10.7005263 C82.7977532,10.6247368 83.3304241,11.2242105 82.9479937,11.2205263 C82.8933608,11.2089474 82.8387278,11.1973684 82.7840949,11.1857895 C82.8418797,11.1936842 82.8991392,11.2015789 82.9569241,11.2094737 C83.0640886,11.4373684 83.1712532,11.6652632 83.300481,11.94 C83.2700127,11.9621053 83.1933165,12.0163158 83.0861519,12.0926316 C83.1581203,12.2042105 83.2311392,12.3178947 83.3146646,12.4473684 C83.2053987,12.5052632 83.104538,12.5594737 82.9721582,12.63 C83.363519,13.3657895 82.8576392,14.0605263 82.9049177,14.8284211 C82.7357658,14.8284211 82.5687152,14.8284211 82.4021899,14.8284211 C82.3932595,14.8594737 82.3838038,14.89 82.3748734,14.9210526 C82.6002342,15.0515789 82.8255949,15.1826316 82.9416899,15.25 C82.8355759,16.2026316 82.7362911,17.0936842 82.6301772,18.0457895 C81.9719557,18.4436842 81.9514684,18.5826316 82.6091646,18.9694737 C82.5513797,19.1547368 82.4909684,19.3478947 82.4310823,19.5410526 L82.4400127,19.5315789 C82.306057,19.5089474 82.1721013,19.4868421 81.9751076,19.4536842 C82.0349937,19.7110526 82.0780696,19.9052632 82.1253481,20.0989474 C82.1721013,20.29 82.2220063,20.48 82.2797911,20.7068421 C82.0575823,20.7663158 81.8674177,20.8168421 81.6572911,20.8726316 C82.2482722,21.4057895 82.2382911,21.4031579 81.9829873,22.3342105 C81.9257278,22.5431579 81.9819367,22.7810526 81.9498924,23 C81.9252025,23.17 81.8527089,23.3352632 81.784943,23.4957895 C81.7544747,23.5678947 81.6252468,23.6473684 81.6399557,23.6821053 C81.8553354,24.1931579 81.3578608,24.5794737 81.4067152,25.0726316 C81.4272025,25.2784211 81.2396646,25.5031579 81.1535127,25.7221053 C81.0747152,25.9215789 81.0043228,26.1247368 80.9302532,26.3257895 C80.8803481,26.3226316 80.830443,26.32 80.7810633,26.3168421 C80.8787722,26.4073684 80.976481,26.4978947 81.0931013,26.6068421 C81.0043228,26.8036842 80.9045127,27.0068421 80.822038,27.2163158 C80.7873671,27.3042105 80.7416646,27.4547368 80.7821139,27.4957895 C81.34,28.0568421 80.7847405,28.6747368 80.8766709,29.2573684 C80.8871772,29.3231579 80.7742342,29.4247368 80.6991139,29.4857895 C80.1244177,29.9510526 80.1196899,30.1215789 80.7773861,30.59 C80.5252342,30.6057895 80.355557,30.6152632 80.1864051,30.6273684 C80.000443,30.6405263 79.814481,30.6552632 79.5765127,30.6731579 C79.6253671,30.8315789 79.6637152,30.9568421 79.6973354,31.0642105 C79.4231203,31.3294737 78.8710127,31.0221053 78.7270759,31.5621053 C78.7186709,31.5926316 78.5731582,31.5915789 78.4912089,31.5968421 C76.5291519,31.7268421 74.5660443,31.8421053 72.605038,31.9894737 C70.8835759,32.1184211 69.1626392,32.2631579 67.4453797,32.4389474 C66.1441709,32.5721053 64.8471646,32.7526316 63.5512089,32.9363158 C61.3574873,33.2468421 59.1648165,33.5626316 56.9752975,33.9010526 C53.8328544,34.3873684 50.7024937,34.96 47.5516456,35.3815789 C41.8992405,36.1384211 36.2836076,37.1036842 30.6821582,38.1584211 C28.439057,38.5810526 26.2132911,39.1015789 23.9633608,39.4826316 C22.7498797,39.6878947 21.5033038,39.7010526 20.2698608,39.7794737 C20.0035253,39.7963158 19.732462,39.7057895 19.4619241,39.6926316 C18.9171709,39.6657895 18.3708418,39.7705263 17.8434241,39.4705263 C17.6501076,39.3610526 17.2802848,39.4 17.0722595,39.5163158 C16.7171456,39.7147368 16.5353861,39.2857895 16.2370063,39.3694737 C16.2096899,39.3773684 16.1261646,39.2584211 16.1004241,39.1873684 C15.8755886,38.5668421 15.6581076,37.9436842 15.4259177,37.2857895 C15.5367595,37.2136842 15.6455,37.1426316 15.7852342,37.0510526 C15.6733418,36.8815789 15.574057,36.7310526 15.4700443,36.5742105 C15.6433987,36.3773684 15.8025696,36.1968421 15.9622658,36.0157895 C15.5803608,35.6721053 15.5267785,35.2184211 15.6018987,34.7547368 C15.6649367,34.3647368 15.5630253,33.9484211 15.5362342,33.5715789 C15.6817468,33.4221053 15.8787405,33.2910526 15.9711962,33.1073684 C16.0925443,32.8657895 15.9948354,32.6421053 15.781557,32.4463158 C15.5015633,32.1889474 15.6208101,31.9652632 15.9102595,31.7994737 C16.0326582,31.7289474 16.1597848,31.6663158 16.3042468,31.59 C16.1529557,31.3926316 15.9643671,31.2426316 15.9149873,31.0557895 C15.8603544,30.8494737 15.8855696,30.59 16.1792215,30.4921053 C16.2128418,30.4810526 16.2301772,30.2910526 16.214943,30.2847368 C16.0809873,30.2315789 15.9381013,30.2015789 15.7232468,30.1452632 C15.9328481,29.9684211 16.123538,29.8068421 16.3089747,29.6505263 C16.2081139,29.3431579 15.9838038,29.0236842 16.0484177,28.7810526 C16.1902532,28.2484211 16.0857152,27.7584211 16.0226772,27.2473684 C16.0006139,27.0689474 16.0694304,26.8794737 16.1077785,26.6210526 C15.9354747,26.5931579 15.7847089,26.5478947 15.6344684,26.5489474 C15.4049051,26.5510526 15.1737658,26.6178947 14.9468291,26.6010526 C14.3175,26.5536842 13.7496329,26.7810526 13.1555,26.9221053 C12.4888734,27.0805263 11.795981,27.1426316 11.1109684,27.2063158 C9.90274051,27.3184211 8.67560127,27.3110526 7.48628481,27.5215789 C6.48555696,27.6984211 5.49796203,27.7873684 4.49723418,27.7110526 C3.49703165,27.6347368 2.49525316,27.5305263 1.50713291,27.3642105 C1.09738608,27.2952632 0.717056962,27.0384211 0.331474684,26.8510526 C0.277892405,26.8247368 0.249,26.7094737 0.24164557,26.6321053 C0.156544304,25.6973684 0.0273164557,24.7626316 0.0126075949,23.8257895 C-0.000525316456,22.9742105 -0.0593607595,22.0605263 0.211702532,21.2821053 C0.597810127,20.1721053 0.498525316,19.0768421 0.544753165,17.9657895 C0.559987342,17.5957895 0.711278481,17.2315789 0.732291139,16.8610526 C0.782196203,15.9947368 0.806360759,15.1263158 0.811088608,14.2584211 C0.814240506,13.7526316 0.786398734,13.2689474 0.917727848,12.7521053 C1.09686076,12.0452632 1.07164557,11.2868421 1.13205696,10.5505263 C1.13888608,10.4684211 1.11682278,10.3810526 1.13573418,10.3026316 C1.27126582,9.73105263 1.48139241,9.16789474 1.53602532,8.58947368 C1.59433544,7.97210526 1.67838608,7.33263158 1.65947468,6.73736842 C1.63846203,6.08421053 1.99147468,5.85736842 2.32767722,5.48894737 C2.88083544,4.88263158 3.59316456,5.11421053 4.2298481,5.08578947 C6.46296835,4.98736842 8.7055443,5.04052632 10.9334114,4.87894737 C13.1628544,4.71736842 15.3775886,4.35842105 17.6007278,4.10368421 C19.8448797,3.84631579 22.0911329,3.61210526 24.3363354,3.36473684 C25.3769873,3.25 26.4160633,3.12 27.4572405,3.01157895 C29.5112278,2.79789474 31.5667911,2.60052632 33.6207785,2.38631579 C35.3905696,2.20157895 37.1577342,1.99105263 38.9285759,1.81578947 C40.0532785,1.70421053 41.1837595,1.65 42.3095127,1.54631579 C44.4964051,1.34421053 46.6796203,1.10263158 48.8675633,0.922105263 C50.1167658,0.818947368 51.3743734,0.820526316 52.6267278,0.743157895 C53.7950316,0.670526316 54.9607089,0.554736842 56.1274367,0.458947368 C58.4876835,0.264736842 60.8521329,0.166842105 63.2176329,0.294210526 C64.2919051,0.352105263 65.3614494,0.51 66.429943,0.644210526 C66.566,0.661052632 66.6857722,0.807894737 66.8134241,0.894736842 C66.6910253,1.07368421 66.5691519,1.25263158 66.3947468,1.50736842 C66.4719684,1.55263158 66.6117025,1.63473684 66.6537278,1.65947368 C66.6679114,1.92631579 66.678943,2.13789474 66.6910253,2.34947368 C66.7073101,2.63 66.7461835,2.91157895 66.7351519,3.19105263 C66.7256962,3.43473684 66.6180063,3.63947368 66.3290823,3.66631579 L66.336962,3.65473684 Z" id="Path"></path>
                <path d="M82.4310823,19.5405263 L82.4400127,19.5310526 L82.4310823,19.5405263 Z" id="Path"></path>
            </g>
        </g>
    </g>
</svg>