<?xml version="1.0" encoding="utf-8"?>
<!-- Generator: Adobe Illustrator 26.3.1, SVG Export Plug-In . SVG Version: 6.00 Build 0)  -->
<!DOCTYPE svg PUBLIC "-//W3C//DTD SVG 1.1//EN" "http://www.w3.org/Graphics/SVG/1.1/DTD/svg11.dtd" [
	<!ENTITY st0 "fill:#F6F6F6;">
	<!ENTITY st1 "fill:#00FFD0;">
	<!ENTITY st2 "fill:#333333;">
	<!ENTITY st3 "fill:#FFFFFF;">
]>
<svg version="1.1" id="a" xmlns="http://www.w3.org/2000/svg" xmlns:xlink="http://www.w3.org/1999/xlink" x="0px" y="0px"
	 width="192px" height="192px" viewBox="0 0 192 192" style="enable-background:new 0 0 192 192;" xml:space="preserve">
<rect style="&st0;" width="192" height="192"/>
<path style="&st1;" d="M42,26v86c0,30.1,24.2,54,54,54s54-23.9,54-54V26H42z"/>
<g>
	<path style="&st2;" d="M67.4,112.9c0,3.9-2.5,5.7-7.7,5.7h-2.1v5.9h-3v-17.3h5.1C64.8,107.3,67.4,109,67.4,112.9z M64.3,112.9
		c0-2.5-1.6-3.2-4.8-3.2h-2v6.5h2C62.7,116.2,64.3,115.4,64.3,112.9z"/>
	<path style="&st2;" d="M81.3,122.2v2c-0.5,0.3-1.2,0.5-1.9,0.5c-1.7,0-2.7-1.1-2.7-2.6v0h-0.1c-0.6,1.5-2,2.8-4.2,2.8
		c-2.6,0-4.3-1.5-4.3-3.8c0-2.7,2.5-3.7,6.3-4.3l2.1-0.3c0-1.8-0.8-2.9-2.5-2.9c-1.4,0-2.3,0.6-3.1,1.8l-1.9-1.3
		c0.7-1.6,2.5-2.8,5-2.8c3.5,0,5.4,1.7,5.4,5v5.1c0,0.8,0.3,1.2,0.8,1.2C80.6,122.5,80.9,122.4,81.3,122.2L81.3,122.2z M76.6,118.5
		L76.6,118.5l-1.9,0.2c-2,0.3-3.5,0.7-3.5,2.1c0,1.3,0.8,1.8,2.1,1.8C75.1,122.6,76.6,121.2,76.6,118.5L76.6,118.5z"/>
	<path style="&st2;" d="M83.2,111.6h2.1l0.6,2.8h0.1c0.9-2.7,2.6-3.1,3.8-3.1c1,0,1.4,0.2,1.6,0.3l-0.4,2.6
		c-0.3-0.2-0.8-0.3-1.5-0.3c-1.7,0-3.4,1.4-3.4,5v5.7h-2.9L83.2,111.6L83.2,111.6z"/>
	<path style="&st2;" d="M100.8,122.1v2.3c-0.7,0.4-1.6,0.5-2.3,0.5c-2.7,0-4-1.3-4-4.2v-6.8h-2.2v-2.1h2.2v-3.4l2.9-0.6v4h2.9v2.1
		h-2.9v6.5c0,1.6,0.5,2.3,1.7,2.3C99.7,122.6,100.4,122.3,100.8,122.1L100.8,122.1z"/>
	<path style="&st2;" d="M103,111.6h2.1l0.6,2.3h0.1c0.8-2,2.2-2.6,3.9-2.6c2.6,0,4.4,1.6,4.4,5v8.3h-2.9v-8c0-2-0.8-2.9-2.3-2.9
		c-1.8,0-3,1.2-3,3.8v7.1H103L103,111.6L103,111.6z"/>
	<path style="&st2;" d="M129.1,119h-10.2c0.3,2.1,1.8,3.6,3.7,3.6c2.1,0,2.9-0.9,3.8-2.2l2.1,1.6c-1.1,1.8-2.9,2.9-5.9,2.9
		c-4,0-6.7-2.8-6.7-6.8c0-4,2.8-6.9,6.7-6.9c3.8,0,6.4,2.8,6.4,6.8L129.1,119L129.1,119z M119,116.9h7.2c-0.3-1.9-1.7-3.3-3.5-3.3
		C120.8,113.6,119.4,115,119,116.9z"/>
	<path style="&st2;" d="M131.2,111.6h2.1l0.6,2.8h0.1c0.9-2.7,2.6-3.1,3.8-3.1c1,0,1.4,0.2,1.6,0.3l-0.4,2.6
		c-0.3-0.2-0.8-0.3-1.5-0.3c-1.7,0-3.4,1.4-3.4,5v5.7h-2.9L131.2,111.6L131.2,111.6z"/>
</g>
<polygon style="&st2;" points="141,95 51,95 51,93 143,93 "/>
<g>
	<path id="b" style="&st3;" d="M119.7,61.4c0,0.3-0.1,0.5-0.3,0.7l-0.3-0.1c0,0-2.5-0.9-6.4-2c0,0-3.4-1-4.8-1.5
		c0,0-0.3-0.1-0.9-0.1s-2.6,0.2-3.9,0.3l-2,0.2c-3.7,0.4-5.3,0.5-5.3,0.5c-5.8,0.6-7.2,0.7-7.2,0.7c-3.1,0.2-5,0.6-9.6,0.9l-8.6,0.9
		L69.7,62l-0.2,0c-0.1-0.1-0.2-0.2-0.2-0.3l0-0.3c0.4-0.1,0-0.5,0-0.5c-0.2-0.1-0.1-0.2-0.1-0.2c0,0,0,0,0-0.1c0,0,0-0.1,0.1-0.1
		c0-0.1,0.1-0.5,0.1-0.5c-0.1-0.1-0.1-0.1-0.2-0.2c-0.1-0.1-0.1-0.3-0.1-0.5c0-0.1,0.2-0.3,0.1-0.4c-0.1-0.1-0.2-0.2-0.3-0.3
		c0-0.1-0.1-0.1-0.1-0.2c0,0,0-0.1,0-0.1c0.1-0.1,0.1-0.1,0-0.2c0-0.1-0.1-0.1-0.1-0.1c-0.1-0.1,0.2-0.4,0.1-0.5
		c0-0.1,0-0.2-0.1-0.2c0,0,0-0.1,0-0.2c0,0,0,0,0,0c0,0,0-0.1,0-0.1c0-0.1,0-0.1,0-0.2c0-0.1,0-0.2-0.1-0.2c0,0,0-0.1,0-0.1
		c0,0,0,0,0,0c0,0,0-0.1,0-0.2l0,0c0,0,0-0.1,0-0.1c0-0.1,0-0.2,0-0.2c0-0.1,0-0.2,0-0.3c0,0,0-0.1,0-0.1c0,0,0-0.1,0-0.1
		c0,0,0.1-0.1,0.1-0.1c0-0.1,0-0.1,0-0.2c0,0,0-0.1-0.1-0.1s-0.1-0.1-0.1-0.1c-0.1-0.1-0.1-0.2-0.1-0.3c0-0.1,0-0.1,0-0.2
		c0,0-0.1-0.1-0.1-0.1c-0.1-0.2-0.1-0.2,0-0.3s0.1,0,0.1-0.2s0-0.3,0.1-0.3c0.1,0,0.1-0.1,0.1-0.2s0-0.4,0-0.5
		c-0.1,0-0.1-0.2-0.2-0.3c0,0,0,0,0,0s0,0,0.1,0c0,0,0,0,0.1,0c0,0,0-0.1,0-0.1c-0.1-0.1-0.1-0.2-0.1-0.3c0-0.2,0-0.4-0.1-0.5
		c0-0.1,0-0.1-0.1-0.2c0,0,0-0.1,0.1-0.1c0,0,0.1,0,0.1,0c0,0,0,0,0.1-0.1c0,0,0-0.1-0.1-0.1c0-0.1-0.1-0.1-0.1-0.1
		c-0.1-0.1-0.1-0.2-0.1-0.2c0.1-0.1,0-0.2,0-0.3c0-0.1-0.1-0.1-0.1-0.2c0,0,0-0.1,0-0.1c0-0.1,0.1-0.1,0.2-0.1
		c0.1,0,0.1-0.1,0.1-0.1c0,0-0.2,0-0.2,0c-0.1-0.1,0-0.1-0.1-0.1C68,49.5,68,49.4,68,49.2c0,0,0-0.1,0.1-0.1s0.1,0,0-0.1
		c0-0.1,0-0.1,0-0.2c0-0.1,0.1,0,0-0.1l0,0c0,0,0.7-0.1,0.8-0.1c0.2,0,0-0.3,0-0.3c0-0.2,0-0.4,0-0.6c0-0.3-0.1-0.3-0.3-0.4
		c0-0.1-0.1-0.1-0.1-0.2c0,0,0-0.1,0.1-0.1s0.1,0,0.1,0c0,0,0-0.1,0,0c0,0,0,0,0,0c0-0.1-0.1,0-0.1-0.1c0,0,0-0.1-0.1-0.2
		c0,0,0-0.1,0.1-0.1s0.1-0.1,0-0.2c0-0.1,0-0.1-0.1-0.2c0-0.2,0-0.3,0-0.3s0.1-0.1,0-0.3c0,0,0,0,0,0c-0.1,0-0.1-0.1-0.1-0.2
		c0-0.1,0.1-0.2,0.1-0.2s0-0.1,0-0.1c0-0.1,0-0.1,0-0.2s-0.1-0.1-0.2-0.1c-0.1,0-0.1-0.1-0.2-0.2s-0.1-0.1,0-0.2c0,0,0.1,0,0.1,0
		c0.1,0,0,0,0-0.1c0,0,0-0.1,0-0.1c0.1-0.2,0.1-0.2,0-0.5c0-0.2-0.1-0.4,0-0.5c0.1-0.1,0-0.4,0.1-0.4c0,0,0-0.1,0.1-0.2s0-0.1,0-0.1
		s0,0,0-0.1c0-0.1-0.1-0.1-0.1-0.2c0-0.1-0.1-0.1-0.1-0.2c-0.1-0.1-0.1-0.2,0-0.2c0.1,0,0-0.1,0-0.2c-0.1-0.1-0.1-0.3-0.1-0.4
		c0,0,0,0,0-0.1c0-0.1-0.1-0.2-0.1-0.2c0,0,0.1,0,0.1,0c0.1-0.1,0.2-0.1,0.1-0.2c0,0,0-0.1,0-0.1c0-0.1-0.1-0.1-0.1-0.2
		c-0.1-0.1,0,0-0.1-0.2l0-0.1c0-0.1,0.1-0.1,0.1-0.1l0.9-0.1c0,0,2.5-0.3,4.8-0.5c0,0,1.8-0.2,9.3-0.9c0,0,3.2-0.3,6.8-0.8
		c0,0,3.2-0.4,9.7-0.9c0,0,4.5-0.5,7.7-0.8c0,0,1.2-0.2,2,0.2c0,0,5.2,2.2,7.1,2.9l8.8,3.8c0.2,0.1,0.1,0.2,0.1,0.2c0,0,0,0-0.1,0
		c0,0-0.1,0-0.1,0.1c0,0.1,0,0.2,0.1,0.3c0.1,0.1,0,0.1,0.1,0.2c0.1,0.1,0,0.3-0.1,0.4c0,0.1-0.4,0.2-0.4,0.3
		c0.1,0.1,0.2,0.2,0.2,0.3c0,0,0,0.1,0,0.2c0,0-0.1,0.1-0.1,0.1c-0.1,0.1-0.1,0.1-0.1,0.2c0,0.1,0,0.1,0.1,0.1
		c0,0.1-0.4,0.2-0.4,0.4c0,0.1,0,0.1,0,0.2c0,0.1,0,0.1,0,0.2v0c0,0,0,0.1,0,0.1c0,0,0,0.1-0.1,0.1v0.2c0,0.1,0,0.1-0.1,0.1
		c0,0,0,0,0,0c-0.1,0-0.1,0.1-0.2,0.1c0,0,0,0,0,0c0,0,0,0.1,0,0.1c-0.1,0-0.1,0.1-0.1,0.2c-0.1,0.1,0,0.2,0,0.3c0,0,0,0.1,0,0.1
		c0,0,0,0.1-0.1,0.1c-0.1,0-0.1,0.1-0.2,0.1c0,0-0.1,0.1-0.1,0.1c0,0,0,0.1,0,0.1c0,0,0,0.1,0.1,0.1c0.1,0.1,0.1,0.2,0,0.3
		c-0.1,0.1-0.1,0.1,0,0.2c0,0,0.1,0.1,0.1,0.1c0,0.2,0,0.2-0.1,0.2s-0.2,0-0.2,0.2s-0.1,0.3-0.2,0.2c-0.1,0-0.2,0.1-0.2,0.2
		c0,0.1,0,0.3,0.1,0.3c0.1,0.1,0.1,0.2,0.1,0.3c0,0,0,0,0,0s0,0-0.1,0c0,0-0.1,0-0.1,0c0,0,0,0.1,0,0.1c0,0.1,0,0.2,0,0.2
		c-0.1,0.1-0.1,0.3,0,0.4c0,0,0,0.1,0,0.2s-0.1,0.1-0.1,0.1s-0.1,0-0.1,0c0,0-0.1,0-0.1,0c0,0,0,0.1,0,0.1c0,0.1,0.1,0.1,0.1,0.2
		c0.1,0.1,0.1,0.2,0,0.2c-0.2,0-0.1,0.1-0.1,0.2c0,0.1,0,0.1,0,0.2c0,0,0,0.1,0,0.1c-0.1,0-0.2,0.1-0.4,0c0,0-0.1,0-0.1,0
		c0,0,0,0.1,0,0.1c0.1,0.1,0.1,0.1,0.2,0.2c0.1,0.1,0.1,0.2,0,0.3c0,0-0.1,0-0.1,0c-0.1,0-0.1,0-0.1,0.1c0,0.1,0,0.2-0.1,0.2
		c-0.1,0-0.1,0.1-0.1,0.2c0,0.1-0.1,0.3-0.2,0.3c-0.1,0-0.1,0.1,0,0.1s0.1,0.2,0.1,0.3c0,0.1,0,0.3,0.1,0.4c0,0,0,0.1,0,0.2
		c0,0-0.1,0.1-0.1,0.1c-0.1,0-0.1-0.1-0.2-0.1c0,0,0,0,0,0c0,0,0,0.1,0,0.1c0,0.1,0.1,0.1,0.1,0.2c0,0.1,0,0.1,0,0.2
		c0,0-0.1,0-0.1,0c-0.1,0-0.1,0-0.1,0.1c0,0.1,0,0.2,0,0.3c0,0.1-0.1,0.2-0.2,0.3c-0.1,0-0.2,0.1-0.1,0.2c0,0,0,0,0,0
		c0,0,0.1,0.1,0,0.2s-0.1,0-0.1,0s-0.1,0-0.1,0c0,0.1,0,0.2,0,0.2c0,0.1,0.1,0.1,0.1,0.2c0.1,0.1,0.2,0.2,0.2,0.3
		c0.1,0.1,0,0.1-0.1,0.1c0,0-0.1,0-0.1,0c-0.1,0-0.2,0-0.2,0.1c0,0,0,0-0.1,0.1c-0.2,0.1-0.2,0.1-0.2,0.4c0,0.2-0.1,0.3-0.2,0.4
		c-0.1,0.1-0.2,0.3-0.3,0.3c-0.1,0-0.1,0.1-0.2,0.1s0,0-0.1,0s0,0-0.1,0c0,0,0,0.2,0,0.2c0,0.1,0,0.1,0.1,0.2c0,0.1,0.1,0.2-0.1,0.2
		c-0.1,0-0.1,0.1-0.1,0.1c0,0,0,0,0,0c0,0.1,0,0.3,0,0.4c0,0,0,0,0,0c0,0.1,0.1,0.2,0,0.2c-0.1,0-0.1,0-0.2,0
		c-0.1,0-0.2,0.1-0.3,0.1c0,0,0,0.1,0,0.1c0,0.1,0.1,0.1,0.1,0.2c0.1,0.1,0.1,0.2,0.2,0.3c0,0.1,0,0.2-0.1,0.3
		C119.7,61.1,119.7,61.2,119.7,61.4L119.7,61.4z"/>
	<g id="c">
		<path style="&st2;" d="M90.1,46.3c-0.6-0.5-1.4-0.8-2.3-0.8c-1.5,0-2.7,0.7-3.2,1.9c-0.5-1.4-1.7-1.9-2.8-1.9
			c-1.1,0-2.1,0.5-2.6,1.4L79,45.8h-1.5v10.6h1.9v-6.5c0-1.6,0.9-2.6,2.2-2.6c1.1,0,1.8,0.7,1.8,2v7.1h1.9v-6.5
			c0-1.6,0.9-2.6,2.2-2.6c1.1,0,1.8,0.7,1.8,2v7.1h1.9v-7.5C91.1,47.8,90.8,46.9,90.1,46.3L90.1,46.3z"/>
		<path style="&st2;" d="M105.6,46.3c-0.6-0.5-1.4-0.8-2.3-0.8c-1.5,0-2.7,0.7-3.2,1.9c-0.5-1.4-1.7-1.9-2.8-1.9
			c-1.1,0-2.1,0.5-2.6,1.4l-0.3-1.1h-1.5v10.6h1.9v-6.5c0-1.6,0.9-2.6,2.2-2.6c1.1,0,1.8,0.7,1.8,2v7.1h1.9v-6.5
			c0-1.6,0.9-2.6,2.2-2.6c1.1,0,1.8,0.7,1.8,2v7.1h1.9v-7.5C106.6,47.8,106.2,46.9,105.6,46.3L105.6,46.3z"/>
		<path style="&st2;" d="M113.2,45.5c-0.8,0-1.5,0.1-2.1,0.4s-1.2,0.7-1.7,1.2c-0.5,0.5-0.8,1.1-1,1.8s-0.4,1.4-0.4,2.1
			s0.1,1.5,0.4,2.1s0.6,1.3,1,1.8c0.5,0.5,1,0.9,1.7,1.2s1.3,0.4,2.1,0.4c1.5,0,2.8-0.6,3.7-1.6s1.5-2.4,1.5-4s-0.5-3-1.5-4
			S114.7,45.5,113.2,45.5L113.2,45.5z M113.2,54.8c-0.8,0-1.6-0.3-2.3-0.9s-1-1.5-1-2.8c0-1.1,0.3-2,0.9-2.6s1.4-1,2.4-1
			c0.9,0,1.7,0.4,2.3,1s0.9,1.6,0.9,2.6c0,1.2-0.4,2.1-1,2.8S114,54.8,113.2,54.8L113.2,54.8z"/>
		<polygon style="&st2;" points="73.6,42.6 73.6,56.4 75.6,56.4 75.6,41.8 		"/>
	</g>
	<g>
		<path style="&st2;" d="M113.9,75.2c2.8-2.1,5.6-4.3,5.6-7.6c0-2.5-1.8-4.3-4.4-4.3c-2.3,0-4.8,1.5-4.8,4.9c0,0.2,0,0.3,0,0.5
			l1.9-0.7c0-1.9,1.4-2.8,2.7-2.8c1.3,0,2.7,0.8,2.7,2.7c0,2.4-2.5,4.3-5.9,7c-0.5,0.4-1,0.8-1.5,1.2l0,0v1.8h9.8v-2H113
			C113.3,75.6,113.6,75.4,113.9,75.2L113.9,75.2z"/>
		<path style="&st2;" d="M66.4,69.6l-0.2-0.1c-1.5-0.6-2.6-1.2-2.6-2.5c0-1.4,1.1-2.1,2.1-2.1c0.9,0,2,0.5,2.4,1.5l1.8-0.7l0-0.1
			c-0.7-1.8-2.6-2.6-4.1-2.6c-2,0-4.2,1.3-4.2,4.1c0,2.7,2.1,3.6,3.8,4.3l0.2,0.1c1.7,0.7,2.9,1.3,2.9,2.7c0,1.5-1.2,2.1-2.4,2.1
			c-1.2,0-2.6-0.6-3.1-2.4l0-0.1L61,74.5c0.6,2.2,2.5,3.7,4.9,3.7c1.2,0,2.3-0.4,3.2-1c1-0.8,1.5-1.9,1.5-3.1
			C70.6,71.2,68.4,70.3,66.4,69.6L66.4,69.6z"/>
		<path style="&st2;" d="M86.8,67c-1.5,0-2.8,0.6-3.7,1.6c-0.9,1-1.5,2.4-1.5,4s0.5,3,1.5,4s2.2,1.6,3.7,1.6s2.8-0.6,3.7-1.6
			c0.9-1,1.5-2.4,1.5-4s-0.5-3-1.5-4C89.6,67.6,88.3,67,86.8,67z M86.8,76.3c-0.8,0-1.6-0.3-2.3-0.9s-1-1.6-1-2.8
			c0-1.1,0.3-2,0.9-2.7c0.6-0.7,1.4-1,2.4-1c0.9,0,1.8,0.4,2.3,1s0.9,1.6,0.9,2.7c0,1.2-0.4,2.2-1,2.8C88.4,76,87.6,76.3,86.8,76.3
			L86.8,76.3z"/>
		<path style="&st2;" d="M99.9,73.3c0,1.9-1.4,3-2.8,3c-1,0-2.1-0.6-2.1-2.3v-6.7h-1.9V74c0,3,1.9,4,3.6,4c1.3,0,2.5-0.6,3.1-1.7
			l0.4,1.4h1.5V67.3h-1.9L99.9,73.3L99.9,73.3z"/>
		<path style="&st2;" d="M106.6,64.3l-1.9,0.7v2.3H103V69h1.8v5.8c0,2.9,1.6,3.3,2.6,3.3c0.5,0,0.9-0.1,1.4-0.2l0.1,0V76l-0.1,0.1
			c-0.3,0.2-0.6,0.3-0.9,0.3c-0.7,0-1.2-0.5-1.2-1.5V69h2.2v-1.7h-2.2L106.6,64.3L106.6,64.3z"/>
		<polygon style="&st2;" points="128.5,72.4 128.5,68.1 126.6,68.8 126.6,72.4 122.4,72.4 127.6,63.5 125.5,63.5 120,72.9 120,74.3 
			126.6,74.3 126.6,77.8 128.5,77.8 128.5,74.3 131,74.3 131,72.4 		"/>
		<path style="&st2;" d="M79.4,74.6c-0.5,1-1.6,1.6-2.7,1.6c-1.6,0-3.2-1.2-3.2-3.7c0-1.8,1-3.7,3.1-3.7c1,0,2,0.6,2.5,1.5l1.8-0.7
			l0-0.1C80,68,78.4,67,76.6,67c-1.3,0-2.5,0.5-3.4,1.4c-1,1-1.5,2.4-1.5,4.2c0,3.8,2.6,5.5,5,5.5c1.9,0,3.5-1,4.4-2.7l0-0.1l0,0
			L79.4,74.6L79.4,74.6z"/>
	</g>
</g>
<g>
	<path style="&st2;" d="M68.5,145.9l0.9-0.4c0.3,1.3,1.2,2,2.5,2c1.2,0,1.9-0.7,1.9-1.7c0-1-0.4-1.4-2.2-2.1
		c-1.8-0.7-2.5-1.4-2.5-2.6c0-1.4,1.1-2.3,2.6-2.3c1,0,1.7,0.3,2.3,0.9l-0.5,0.8c-0.4-0.5-1-0.7-1.7-0.7c-1,0-1.6,0.6-1.6,1.4
		c0,0.7,0.4,1.1,1.8,1.7c2.3,0.9,2.9,1.6,2.9,2.9c0,1.6-1.2,2.7-3,2.7C70.1,148.4,68.9,147.5,68.5,145.9L68.5,145.9z"/>
	<path style="&st2;" d="M82.9,145h-5.6c0.1,1.5,1.1,2.5,2.5,2.5c1.2,0,1.8-0.6,2.2-1.1l0.7,0.5c-0.5,0.8-1.4,1.4-2.9,1.4
		c-2,0-3.4-1.5-3.4-3.6s1.4-3.6,3.4-3.6c1.9,0,3.3,1.5,3.3,3.6L82.9,145L82.9,145z M77.3,144.3h4.6c-0.2-1.3-1.1-2.3-2.2-2.3
		C78.5,142,77.5,142.9,77.3,144.3z"/>
	<path style="&st2;" d="M84.4,139.3c0-0.4,0.3-0.7,0.7-0.7c0.4,0,0.7,0.3,0.7,0.7c0,0.4-0.3,0.7-0.7,0.7
		C84.7,140,84.4,139.7,84.4,139.3z M84.6,141.4h1v6.9h-1V141.4z"/>
	<path style="&st2;" d="M91.2,147.3v0.8c-0.3,0.2-0.7,0.2-1.1,0.2c-1.2,0-1.8-0.6-1.8-2.1v-4.1H87v-0.8h1.2v-2l1-0.2v2.2h1.7v0.8
		h-1.7v4c0,1,0.3,1.4,1.1,1.4C90.6,147.6,90.9,147.5,91.2,147.3L91.2,147.3z"/>
	<path style="&st2;" d="M101.7,147.3v0.9h-6v-0.7l2.9-2.9c1.1-1.1,1.9-2.1,1.9-3.3c0-1.1-0.7-1.6-1.8-1.6c-0.8,0-1.3,0.3-1.8,1
		l-0.7-0.6c0.6-0.7,1.4-1.2,2.5-1.2c1.7,0,2.8,0.9,2.8,2.5c0,1.7-1.1,2.8-2.1,3.8l-2.3,2.2H101.7L101.7,147.3z"/>
	<path style="&st2;" d="M103.2,143.6c0-3,1.1-4.8,3.4-4.8c2.2,0,3.4,1.8,3.4,4.8s-1.1,4.8-3.4,4.8
		C104.3,148.4,103.2,146.6,103.2,143.6z M108.9,143.6c0-2.5-0.7-3.9-2.3-3.9s-2.4,1.4-2.4,3.9c0,2.5,0.8,3.9,2.4,3.9
		S108.9,146.1,108.9,143.6z"/>
	<path style="&st2;" d="M114.7,138.8v9.4h-1v-7.9l-2.3,1.2v-1L114.7,138.8L114.7,138.8z"/>
	<path style="&st2;" d="M117.5,147.3l0.7-0.7c0.4,0.5,0.9,0.9,1.8,0.9c1.5,0,2.3-1.2,2.3-4.2h0c-0.3,1-1.1,1.7-2.4,1.7
		c-1.7,0-2.9-1.2-2.9-3c0-1.8,1.2-3.2,3-3.2c2,0,3.3,1.5,3.3,4.7c0,3.2-1.1,5-3.3,5C118.8,148.4,117.9,148,117.5,147.3L117.5,147.3z
		 M122,141.9c0-1.2-0.7-2.2-2-2.2c-1.2,0-2,0.9-2,2.2c0,1.3,0.8,2.2,1.9,2.2C121.1,144.1,122,143.2,122,141.9z"/>
</g>
</svg>
